<svg xmlns="http://www.w3.org/2000/svg" version="1.1" xmlns:xlink="http://www.w3.org/1999/xlink" xmlns:svgjs="http://svgjs.dev/svgjs" viewBox="0 0 4.8381103515625 5.788666123872469"><g transform="matrix(0.8571428571428571,0,0,0.8571428571428571,0,5.2)"><g clip-path="url(#SvgjsClipPath68057)"><g clip-path="url(#SvgjsClipPath68055f7a19660-0740-4d69-b110-ec76a03773a8)"><path d=" M 3.023251947375866 -0.49172125123818056 L 1.3737461289265134 -0.49172125123818056 C 1.0585416173119244 -0.49172125123818056 0.8032839760044043 -0.7469788925457008 0.8032839760044043 -1.0621834041602902 L 0.8032839760044043 -4.372797661118428 C 0.8032839760044043 -4.688002172733017 1.0585416173119244 -4.9432598140405375 1.3737461289265134 -4.9432598140405375 L 3.0213181773659605 -4.9432598140405375 C 3.33652268898055 -4.9432598140405375 3.5917803302880698 -4.688002172733017 3.5917803302880698 -4.372797661118428 L 3.833501581526252 -4.372797661118428 C 3.833501581526252 -4.819498533406588 3.469952819664026 -5.184981065278719 3.0213181773659605 -5.184981065278719 L 1.3737461289265134 -5.184981065278719 C 0.9270452566383534 -5.184981065278719 0.5615627247662225 -4.821432303416493 0.5615627247662225 -4.372797661118428 L 0.5615627247662225 -1.0621834041602902 C 0.5615627247662225 -0.6154825318721304 0.9251114866284478 -0.25 1.3737461289265134 -0.25 L 3.0213181773659605 -0.25 C 3.4680190496541203 -0.25 3.833501581526252 -0.6135487618622255 3.833501581526252 -1.0621834041602902 L 3.5917803302880698 -1.0621834041602902 C 3.5917803302880693 -0.7469788925457008 3.3365226889805495 -0.49172125123818056 3.023251947375866 -0.49172125123818056 Z" fill="#ffffff" transform="matrix(1,0,0,1,0,0)" fill-rule="nonzero"></path></g><g clip-path="url(#SvgjsClipPath68055f7a19660-0740-4d69-b110-ec76a03773a8)"><path d=" M 2.479862574592433 -4.620320222386327 L 1.917135501709946 -4.620320222386327 C 1.8726587914821204 -4.620320222386327 1.8359171612939167 -4.583578592198123 1.8359171612939167 -4.539101881970297 C 1.8359171612939167 -4.494625171742472 1.8726587914821204 -4.457883541554268 1.917135501709946 -4.457883541554268 L 2.479862574592433 -4.457883541554268 C 2.5243392848202584 -4.457883541554268 2.5610809150084624 -4.494625171742472 2.5610809150084624 -4.539101881970297 C 2.5610809150084624 -4.583578592198123 2.5243392848202584 -4.620320222386327 2.479862574592433 -4.620320222386327 Z" fill="#ffffff" transform="matrix(1,0,0,1,0,0)" fill-rule="nonzero"></path></g><g clip-path="url(#SvgjsClipPath68055f7a19660-0740-4d69-b110-ec76a03773a8)"><path d=" M 2.197532153146237 -1.162739444675374 C 2.0931085726113423 -1.162739444675374 2.009956462185408 -1.0795873342494389 2.009956462185408 -0.9751637537145443 C 2.009956462185408 -0.8707401731796507 2.0931085726113423 -0.7875880627537155 2.197532153146237 -0.7875880627537155 C 2.3019557336811314 -0.7875880627537155 2.3851078441070657 -0.8707401731796507 2.3851078441070657 -0.9751637537145443 C 2.3851078441070657 -1.077653564239534 2.3019557336811314 -1.162739444675374 2.197532153146237 -1.162739444675374 Z" fill="#ffffff" transform="matrix(1,0,0,1,0,0)" fill-rule="nonzero"></path></g><g clip-path="url(#SvgjsClipPath68055f7a19660-0740-4d69-b110-ec76a03773a8)"><path d=" M 5.036306527687445 -3.2396084353138317 L 4.156441173180463 -2.0967503594597083 L 4.937684257182267 -1.9923267789248138 C 5.067246847845932 -2.2127765600540354 5.1368625682025275 -2.462232891331839 5.1368625682025275 -2.7155567626294537 C 5.1368625682025275 -2.8973311435605664 5.103988478034135 -3.0733042144619627 5.036306527687445 -3.2396084353138317 Z" fill="#f8b234" transform="matrix(1,0,0,1,0,0)" fill-rule="nonzero"></path></g><g clip-path="url(#SvgjsClipPath68055f7a19660-0740-4d69-b110-ec76a03773a8)"><path d=" M 2.4740612645627165 -2.0155320190436794 C 2.690643505672128 -1.6307117870724936 3.071596197623502 -1.3715866057451622 3.5066944498522292 -1.3077721954182828 L 2.9575037670390802 -2.6420735022530466 L 2.4740612645627165 -2.0155320190436794 Z" fill="#35a8e0" transform="matrix(1,0,0,1,0,0)" fill-rule="nonzero"></path></g><g clip-path="url(#SvgjsClipPath68055f7a19660-0740-4d69-b110-ec76a03773a8)"><path d=" M 2.4875976546320553 -3.4407205163439993 C 2.35803506396839 -3.2202707352147772 2.2884193436117934 -2.970814403936974 2.2884193436117934 -2.7174905326393595 C 2.2884193436117934 -2.537649921718152 2.321293433780186 -2.3616768508167554 2.388975384126877 -2.1934388599549814 L 3.2688407386338585 -3.336296935809105 L 2.4875976546320553 -3.4407205163439993 Z" fill="#3da936" transform="matrix(1,0,0,1,0,0)" fill-rule="nonzero"></path></g><g clip-path="url(#SvgjsClipPath68055f7a19660-0740-4d69-b110-ec76a03773a8)"><path d=" M 3.727144230981451 -4.140745259929774 C 3.721342920951735 -4.140745259929774 3.7174753809319236 -4.140745259929774 3.711674070902207 -4.140745259929774 C 3.462217739624404 -4.140745259929774 3.2166289483664112 -4.074997079592988 3.001980477266905 -3.951235798959039 C 2.845345106464564 -3.860348608493483 2.709981205771182 -3.7443224078991557 2.5997563152065704 -3.603157197176057 L 4.0288123525267014 -3.413647736205323 L 3.727144230981451 -4.140745259929774 Z" fill="#e31018" transform="matrix(1,0,0,1,0,0)" fill-rule="nonzero"></path></g><g clip-path="url(#SvgjsClipPath68055f7a19660-0740-4d69-b110-ec76a03773a8)"><path d=" M 4.953154417261509 -3.417515276225134 C 4.736572176152099 -3.802335508196319 4.355619484200724 -4.06146068952365 3.9205212319719966 -4.12527509985053 L 4.469711914785146 -2.7909737930157665 L 4.953154417261509 -3.417515276225134 Z" fill="#e84e1d" transform="matrix(1,0,0,1,0,0)" fill-rule="nonzero"></path></g><g clip-path="url(#SvgjsClipPath68055f7a19660-0740-4d69-b110-ec76a03773a8)"><path d=" M 3.698137680832869 -1.292302035339039 C 3.7039389908625857 -1.292302035339039 3.709740300892302 -1.292302035339039 3.713607840912113 -1.292302035339039 C 3.963064172189917 -1.292302035339039 4.208652963447909 -1.3580502156758243 4.423301434547415 -1.4818114963097733 C 4.579936805349757 -1.5726986867753299 4.715300706043139 -1.688724887369657 4.82552559660775 -1.829890098092756 L 3.396469559287619 -2.0193995590634906 L 3.698137680832869 -1.292302035339039 Z" fill="#672783" transform="matrix(1,0,0,1,0,0)" fill-rule="nonzero"></path></g></g></g><defs><clipPath id="SvgjsClipPath68057"><path d=" M 0.5615627247662225 -5.184981065278719 h 4.575299843436305 v 4.934981065278719 h -4.575299843436305 Z"></path></clipPath><clipPath id="SvgjsClipPath68055f7a19660-0740-4d69-b110-ec76a03773a8"><path d=" M 0.5615627247662225 -5.184981065278719 L 5.1368625682025275 -5.184981065278719 L 5.1368625682025275 -0.25 L 0.5615627247662225 -0.25 Z"></path></clipPath></defs></svg>