<svg xmlns="http://www.w3.org/2000/svg" version="1.1" xmlns:xlink="http://www.w3.org/1999/xlink" xmlns:svgjs="http://svgjs.dev/svgjs" viewBox="0 0 6.8381103515625 7.788666123872469"><g transform="matrix(0.8571428571428571,0,0,0.8571428571428571,0.9768729073660718,5.489039232769971)"><g clip-path="url(#SvgjsClipPath68057)"><g clip-path="url(#SvgjsClipPath68055f7a19660-0740-4d69-b110-ec76a03773a8)"><path d=" M 3.023251947375866 -0.49172125123818056 L 1.3737461289265134 -0.49172125123818056 C 1.0585416173119244 -0.49172125123818056 0.8032839760044043 -0.7469788925457008 0.8032839760044043 -1.0621834041602902 L 0.8032839760044043 -4.372797661118428 C 0.8032839760044043 -4.688002172733017 1.0585416173119244 -4.9432598140405375 1.3737461289265134 -4.9432598140405375 L 3.0213181773659605 -4.9432598140405375 C 3.33652268898055 -4.9432598140405375 3.5917803302880698 -4.688002172733017 3.5917803302880698 -4.372797661118428 L 3.833501581526252 -4.372797661118428 C 3.833501581526252 -4.819498533406588 3.469952819664026 -5.184981065278719 3.0213181773659605 -5.184981065278719 L 1.3737461289265134 -5.184981065278719 C 0.9270452566383534 -5.184981065278719 0.5615627247662225 -4.821432303416493 0.5615627247662225 -4.372797661118428 L 0.5615627247662225 -1.0621834041602902 C 0.5615627247662225 -0.6154825318721304 0.9251114866284478 -0.25 1.3737461289265134 -0.25 L 3.0213181773659605 -0.25 C 3.4680190496541203 -0.25 3.833501581526252 -0.6135487618622255 3.833501581526252 -1.0621834041602902 L 3.5917803302880698 -1.0621834041602902 C 3.5917803302880693 -0.7469788925457008 3.3365226889805495 -0.49172125123818056 3.023251947375866 -0.49172125123818056 Z" fill="#333333" transform="matrix(1,0,0,1,0,0)" fill-rule="nonzero"></path></g><g clip-path="url(#SvgjsClipPath68055f7a19660-0740-4d69-b110-ec76a03773a8)"><path d=" M 2.479862574592433 -4.620320222386327 L 1.917135501709946 -4.620320222386327 C 1.8726587914821204 -4.620320222386327 1.8359171612939167 -4.583578592198123 1.8359171612939167 -4.539101881970297 C 1.8359171612939167 -4.494625171742472 1.8726587914821204 -4.457883541554268 1.917135501709946 -4.457883541554268 L 2.479862574592433 -4.457883541554268 C 2.5243392848202584 -4.457883541554268 2.5610809150084624 -4.494625171742472 2.5610809150084624 -4.539101881970297 C 2.5610809150084624 -4.583578592198123 2.5243392848202584 -4.620320222386327 2.479862574592433 -4.620320222386327 Z" fill="#333333" transform="matrix(1,0,0,1,0,0)" fill-rule="nonzero"></path></g><g clip-path="url(#SvgjsClipPath68055f7a19660-0740-4d69-b110-ec76a03773a8)"><path d=" M 2.197532153146237 -1.162739444675374 C 2.0931085726113423 -1.162739444675374 2.009956462185408 -1.0795873342494389 2.009956462185408 -0.9751637537145443 C 2.009956462185408 -0.8707401731796507 2.0931085726113423 -0.7875880627537155 2.197532153146237 -0.7875880627537155 C 2.3019557336811314 -0.7875880627537155 2.3851078441070657 -0.8707401731796507 2.3851078441070657 -0.9751637537145443 C 2.3851078441070657 -1.077653564239534 2.3019557336811314 -1.162739444675374 2.197532153146237 -1.162739444675374 Z" fill="#333333" transform="matrix(1,0,0,1,0,0)" fill-rule="nonzero"></path></g><g clip-path="url(#SvgjsClipPath68055f7a19660-0740-4d69-b110-ec76a03773a8)"><path d=" M 5.036306527687445 -3.2396084353138317 L 4.156441173180463 -2.0967503594597083 L 4.937684257182267 -1.9923267789248138 C 5.067246847845932 -2.2127765600540354 5.1368625682025275 -2.462232891331839 5.1368625682025275 -2.7155567626294537 C 5.1368625682025275 -2.8973311435605664 5.103988478034135 -3.0733042144619627 5.036306527687445 -3.2396084353138317 Z" fill="#f8b234" transform="matrix(1,0,0,1,0,0)" fill-rule="nonzero"></path></g><g clip-path="url(#SvgjsClipPath68055f7a19660-0740-4d69-b110-ec76a03773a8)"><path d=" M 2.4740612645627165 -2.0155320190436794 C 2.690643505672128 -1.6307117870724936 3.071596197623502 -1.3715866057451622 3.5066944498522292 -1.3077721954182828 L 2.9575037670390802 -2.6420735022530466 L 2.4740612645627165 -2.0155320190436794 Z" fill="#35a8e0" transform="matrix(1,0,0,1,0,0)" fill-rule="nonzero"></path></g><g clip-path="url(#SvgjsClipPath68055f7a19660-0740-4d69-b110-ec76a03773a8)"><path d=" M 2.4875976546320553 -3.4407205163439993 C 2.35803506396839 -3.2202707352147772 2.2884193436117934 -2.970814403936974 2.2884193436117934 -2.7174905326393595 C 2.2884193436117934 -2.537649921718152 2.321293433780186 -2.3616768508167554 2.388975384126877 -2.1934388599549814 L 3.2688407386338585 -3.336296935809105 L 2.4875976546320553 -3.4407205163439993 Z" fill="#3da936" transform="matrix(1,0,0,1,0,0)" fill-rule="nonzero"></path></g><g clip-path="url(#SvgjsClipPath68055f7a19660-0740-4d69-b110-ec76a03773a8)"><path d=" M 3.727144230981451 -4.140745259929774 C 3.721342920951735 -4.140745259929774 3.7174753809319236 -4.140745259929774 3.711674070902207 -4.140745259929774 C 3.462217739624404 -4.140745259929774 3.2166289483664112 -4.074997079592988 3.001980477266905 -3.951235798959039 C 2.845345106464564 -3.860348608493483 2.709981205771182 -3.7443224078991557 2.5997563152065704 -3.603157197176057 L 4.0288123525267014 -3.413647736205323 L 3.727144230981451 -4.140745259929774 Z" fill="#e31018" transform="matrix(1,0,0,1,0,0)" fill-rule="nonzero"></path></g><g clip-path="url(#SvgjsClipPath68055f7a19660-0740-4d69-b110-ec76a03773a8)"><path d=" M 4.953154417261509 -3.417515276225134 C 4.736572176152099 -3.802335508196319 4.355619484200724 -4.06146068952365 3.9205212319719966 -4.12527509985053 L 4.469711914785146 -2.7909737930157665 L 4.953154417261509 -3.417515276225134 Z" fill="#e84e1d" transform="matrix(1,0,0,1,0,0)" fill-rule="nonzero"></path></g><g clip-path="url(#SvgjsClipPath68055f7a19660-0740-4d69-b110-ec76a03773a8)"><path d=" M 3.698137680832869 -1.292302035339039 C 3.7039389908625857 -1.292302035339039 3.709740300892302 -1.292302035339039 3.713607840912113 -1.292302035339039 C 3.963064172189917 -1.292302035339039 4.208652963447909 -1.3580502156758243 4.423301434547415 -1.4818114963097733 C 4.579936805349757 -1.5726986867753299 4.715300706043139 -1.688724887369657 4.82552559660775 -1.829890098092756 L 3.396469559287619 -2.0193995590634906 L 3.698137680832869 -1.292302035339039 Z" fill="#672783" transform="matrix(1,0,0,1,0,0)" fill-rule="nonzero"></path></g></g><g><path d=" M 0.258 0.489 Q 0.318 0.39749999999999996 0.40650000000000003 0.39749999999999996 Q 0.495 0.39749999999999996 0.5445 0.46950000000000003 Q 0.594 0.5415 0.594 0.6585000000000001 Q 0.594 0.8325 0.51975 0.9750000000000001 Q 0.4455 1.1175 0.3615 1.1175 Q 0.3015 1.1175 0.258 1.1025 Q 0.261 1.3095 0.2685 1.464 L 0.093 1.4460000000000002 Q 0.0855 1.176 0.0855 0.87225 Q 0.0855 0.5685 0.1065 0.348 L 0.2625 0.36450000000000005 L 0.258 0.489 M 0.303 0.9675 Q 0.34500000000000003 0.9675 0.38175000000000003 0.885 Q 0.4185 0.8025 0.4185 0.71925 Q 0.4185 0.636 0.4035 0.59025 Q 0.3885 0.5445 0.369 0.5445 Q 0.336 0.5445 0.31125 0.5835 Q 0.28650000000000003 0.6225 0.2595 0.696 Q 0.258 0.774 0.258 0.936 Q 0.2805 0.9675 0.303 0.9675 M 0.8864597167968751 0.486 Q 0.955459716796875 0.40049999999999997 1.022209716796875 0.40049999999999997 Q 1.088959716796875 0.40049999999999997 1.130959716796875 0.4455 Q 1.2044597167968751 0.5235 1.2044597167968751 0.6435 Q 1.2044597167968751 0.861 1.187959716796875 1.098 L 1.013959716796875 1.0815000000000001 Q 1.024459716796875 0.861 1.024459716796875 0.648 Q 1.024459716796875 0.5685 0.983959716796875 0.5685 Q 0.935959716796875 0.5685 0.8804597167968751 0.7785 Q 0.877459716796875 0.9285 0.865459716796875 1.119 L 0.689959716796875 1.1025 Q 0.709459716796875 0.8445 0.709459716796875 0.5265 Q 0.709459716796875 0.20850000000000002 0.698959716796875 0.014999999999999902 L 0.8744597167968751 0.031500000000000083 Q 0.8864597167968751 0.243 0.8864597167968751 0.486 M 1.46394140625 0.8265 Q 1.46394140625 0.996 1.53894140625 0.996 Q 1.5719414062500001 0.996 1.59444140625 0.90075 Q 1.61694140625 0.8055000000000001 1.61694140625 0.7185 Q 1.61694140625 0.5265 1.5539414062499999 0.5265 Q 1.5134414062500001 0.5265 1.48869140625 0.6292500000000001 Q 1.46394140625 0.732 1.46394140625 0.8265 M 1.28844140625 0.813 Q 1.28844140625 0.6735 1.34544140625 0.54 Q 1.37544140625 0.47250000000000003 1.43019140625 0.42974999999999997 Q 1.48494140625 0.387 1.55244140625 0.387 Q 1.61994140625 0.387 1.66869140625 0.41775000000000007 Q 1.71744140625 0.4485 1.74294140625 0.49950000000000006 Q 1.79244140625 0.6000000000000001 1.79244140625 0.7185 Q 1.79244140625 0.882 1.72569140625 1.00875 Q 1.65894140625 1.1355 1.53894140625 1.1355 Q 1.28844140625 1.1355 1.28844140625 0.813 M 2.231912841796875 0.46950000000000003 L 2.231912841796875 0.6120000000000001 Q 2.159912841796875 0.6120000000000001 2.120912841796875 0.6135 Q 2.116412841796875 0.7635000000000001 2.116412841796875 1.1175 L 1.939412841796875 1.101 Q 1.939412841796875 0.8385 1.943912841796875 0.6255 Q 1.921412841796875 0.6255 1.858412841796875 0.633 L 1.835912841796875 0.51 Q 1.871912841796875 0.5025000000000001 1.9484128417968751 0.49050000000000005 Q 1.951412841796875 0.37950000000000006 1.960412841796875 0.16649999999999998 L 2.1389128417968752 0.18300000000000005 Q 2.129912841796875 0.3315 2.125412841796875 0.471 Q 2.162912841796875 0.46950000000000003 2.231912841796875 0.46950000000000003 M 2.446393798828125 0.8265 Q 2.446393798828125 0.996 2.521393798828125 0.996 Q 2.554393798828125 0.996 2.576893798828125 0.90075 Q 2.599393798828125 0.8055000000000001 2.599393798828125 0.7185 Q 2.599393798828125 0.5265 2.536393798828125 0.5265 Q 2.495893798828125 0.5265 2.471143798828125 0.6292500000000001 Q 2.446393798828125 0.732 2.446393798828125 0.8265 M 2.270893798828125 0.813 Q 2.270893798828125 0.6735 2.327893798828125 0.54 Q 2.357893798828125 0.47250000000000003 2.412643798828125 0.42974999999999997 Q 2.467393798828125 0.387 2.534893798828125 0.387 Q 2.602393798828125 0.387 2.651143798828125 0.41775000000000007 Q 2.699893798828125 0.4485 2.725393798828125 0.49950000000000006 Q 2.774893798828125 0.6000000000000001 2.774893798828125 0.7185 Q 2.774893798828125 0.882 2.708143798828125 1.00875 Q 2.641393798828125 1.1355 2.521393798828125 1.1355 Q 2.270893798828125 1.1355 2.270893798828125 0.813 M 3.506871826171875 1.1205 L 3.314871826171875 1.1025 Q 3.203871826171875 0.6555 3.179871826171875 0.402 L 3.350871826171875 0.41700000000000004 Q 3.376371826171875 0.6930000000000001 3.421371826171875 0.912 Q 3.482871826171875 0.687 3.551871826171875 0.34650000000000003 L 3.713871826171875 0.36 Q 3.628371826171875 0.7545 3.506871826171875 1.1205 M 3.85341357421875 0.45525000000000004 Q 3.91641357421875 0.37350000000000005 4.01841357421875 0.37350000000000005 Q 4.12041357421875 0.37350000000000005 4.16916357421875 0.45825000000000005 Q 4.21791357421875 0.543 4.21791357421875 0.6990000000000001 Q 4.21791357421875 0.855 4.19991357421875 1.1295 L 4.07391357421875 1.119 L 4.0619135742187495 1.071 Q 3.99141357421875 1.1115 3.91791357421875 1.1115 Q 3.84441357421875 1.1115 3.79641357421875 1.06275 Q 3.74841357421875 1.014 3.74841357421875 0.9225 Q 3.74841357421875 0.831 3.83916357421875 0.765 Q 3.92991357421875 0.6990000000000001 4.04841357421875 0.696 L 4.04841357421875 0.6555 Q 4.04841357421875 0.537 3.99141357421875 0.537 Q 3.9629135742187502 0.537 3.93966357421875 0.57675 Q 3.91641357421875 0.6165 3.90591357421875 0.6675 L 3.76791357421875 0.654 Q 3.79041357421875 0.537 3.85341357421875 0.45525000000000004 M 3.90141357421875 0.9315 Q 3.90141357421875 0.9795 3.95841357421875 0.9795 Q 3.9974135742187498 0.9795 4.04091357421875 0.9615 L 4.04391357421875 0.8355 Q 3.97341357421875 0.8415 3.93741357421875 0.87075 Q 3.90141357421875 0.9 3.90141357421875 0.9315 M 4.850935546875 0.393 L 4.847935546875 0.63 Q 4.847935546875 0.9645 4.8599355468750005 1.122 L 4.711435546875 1.107 Q 4.706935546875 1.044 4.691935546875 0.9795 Q 4.609435546875 1.101 4.526185546875 1.101 Q 4.442935546875 1.101 4.393435546875 1.044 Q 4.343935546875 0.987 4.343935546875 0.8865000000000001 Q 4.343935546875 0.6915 4.372435546875 0.4215 L 4.546435546875 0.43800000000000006 Q 4.519435546875 0.6945 4.519435546875 0.864 Q 4.519435546875 0.9405 4.567435546875 0.9405 Q 4.589935546875 0.9405 4.622185546875 0.879 Q 4.654435546875 0.8175 4.673935546875 0.7305 Q 4.672435546875 0.6975 4.672435546875 0.6525000000000001 Q 4.672435546875 0.6075 4.676935546875 0.378 L 4.850935546875 0.393 M 5.207909912109375 0.013500000000000068 Q 5.185409912109375 0.393 5.185409912109375 0.6975 Q 5.185409912109375 1.002 5.192909912109375 1.125 L 5.015909912109375 1.1085 Q 5.009909912109375 0.9525 5.009909912109375 0.66525 Q 5.009909912109375 0.378 5.032409912109375 0 L 5.207909912109375 0.013500000000000068 M 5.6954443359375 0.46950000000000003 L 5.6954443359375 0.6120000000000001 Q 5.6234443359375 0.6120000000000001 5.5844443359375 0.6135 Q 5.5799443359375 0.7635000000000001 5.5799443359375 1.1175 L 5.4029443359375 1.101 Q 5.4029443359375 0.8385 5.4074443359375 0.6255 Q 5.3849443359375 0.6255 5.3219443359375 0.633 L 5.2994443359375 0.51 Q 5.3354443359375 0.5025000000000001 5.4119443359375 0.49050000000000005 Q 5.4149443359375 0.37950000000000006 5.4239443359375 0.16649999999999998 L 5.6024443359375 0.18300000000000005 Q 5.5934443359375 0.3315 5.5889443359375 0.471 Q 5.6264443359375 0.46950000000000003 5.6954443359375 0.46950000000000003" fill="#333333" fill-rule="nonzero"></path></g><g></g></g><defs><clipPath id="SvgjsClipPath68057"><path d=" M 0.5615627247662225 -5.184981065278719 h 4.575299843436305 v 4.934981065278719 h -4.575299843436305 Z"></path></clipPath><clipPath id="SvgjsClipPath68055f7a19660-0740-4d69-b110-ec76a03773a8"><path d=" M 0.5615627247662225 -5.184981065278719 L 5.1368625682025275 -5.184981065278719 L 5.1368625682025275 -0.25 L 0.5615627247662225 -0.25 Z"></path></clipPath></defs></svg>